<svg xmlns="http://www.w3.org/2000/svg" width="54" height="54" viewBox="0 0 54 54">
  <g id="Group_11" data-name="Group 11" transform="translate(-4.963 -4.963)">
    <circle id="Ellipse_23" data-name="Ellipse 23" cx="27" cy="27" r="27" transform="translate(4.963 4.963)" fill="#262234"/>
    <path id="Path_21" data-name="Path 21" d="M48.726,53.154a26.921,26.921,0,0,1-33.476,0L16,50.5A9.114,9.114,0,0,1,24.783,44h14.41a9.114,9.114,0,0,1,8.784,6.5Z" transform="translate(-0.006 -0.026)" fill="#ee2a7b"/>
    <path id="Path_22" data-name="Path 22" d="M35.994,39.939v5.466a.939.939,0,0,1-.52.839l-3.058,1.529a.939.939,0,0,1-.839,0L28.52,46.245a.939.939,0,0,1-.52-.839V39.939A.939.939,0,0,1,28.939,39h6.106a.939.939,0,0,1,.949.939Z" transform="translate(-0.015 -0.023)" fill="#ffd2b4"/>
    <path id="Path_23" data-name="Path 23" d="M35.993,44v1.419a.939.939,0,0,1-.52.839l-3.058,1.529a.929.929,0,0,1-.839,0l-3.058-1.529a.939.939,0,0,1-.52-.839V44H26v1.419A2.918,2.918,0,0,0,27.629,48l3,1.529a3,3,0,0,0,2.638,0l3-1.529a2.918,2.918,0,0,0,1.729-2.578V44Z" transform="translate(-0.013 -0.026)" fill="#fff" opacity="0.1"/>
    <path id="Path_24" data-name="Path 24" d="M35.994,41v2A8.494,8.494,0,0,1,28,43V41a8.494,8.494,0,0,0,7.994,0Z" transform="translate(-0.015 -0.024)" fill="#262234" opacity="0.1"/>
    <path id="Path_25" data-name="Path 25" d="M43.473,22.59,35.989,36.28s-1.159,12.451.12,13.91a2.438,2.438,0,0,0,3.727-.53C46.341,41.167,43.473,22.59,43.473,22.59Zm-22.964,0s-2.868,18.577,3.667,27.061a2.438,2.438,0,0,0,3.727.53c1.279-1.459.12-13.91.12-13.91Z" transform="translate(-0.009 -0.011)" fill="#ffa517"/>
    <path id="Path_26" data-name="Path 26" d="M31.991,15.21c10.992,0,10.093,10.782,10.093,10.782,1.619-.17,2.9.49,2.9,2.858s-1,2.858-2.258,3a.28.28,0,0,0-.26.27c-.38,3.687-2.9,6.385-5.376,8.194a8.584,8.584,0,0,1-10.183,0c-2.478-1.809-5-4.517-5.376-8.194a.28.28,0,0,0-.26-.27c-1.269-.13-2.258-.63-2.258-3s1.219-3,2.838-2.858C21.838,25.992,20.939,15.21,31.991,15.21Z" transform="translate(-0.008 -0.006)" fill="#ffd2b4"/>
    <circle id="Ellipse_24" data-name="Ellipse 24" cx="1.699" cy="1.699" r="1.699" transform="translate(26.326 26.436)" fill="#262234"/>
    <circle id="Ellipse_25" data-name="Ellipse 25" cx="1.699" cy="1.699" r="1.699" transform="translate(34.241 26.436)" fill="#262234"/>
    <path id="Path_27" data-name="Path 27" d="M35.864,32.53a1,1,0,0,1,1,1.249,5,5,0,0,1-9.673,0,1,1,0,0,1,1-1.249Z" transform="translate(-0.014 -0.018)" fill="#611c24"/>
    <path id="Path_28" data-name="Path 28" d="M34.417,36.909a5,5,0,0,1-4.837,0c.2-1.229,1.209-1.569,2.418-1.569S34.217,35.68,34.417,36.909Z" transform="translate(-0.016 -0.02)" fill="#be1e2d"/>
    <path id="Path_29" data-name="Path 29" d="M34.866,32.53v.949a.37.37,0,0,1-.36.37h-5a.37.37,0,0,1-.36-.37V32.53Z" transform="translate(-0.016 -0.018)" fill="#fff"/>
    <path id="Path_30" data-name="Path 30" d="M43.484,22.194C42.984,15.338,36.858,13,31.992,13S21,15.338,20.5,22.194a11.312,11.312,0,0,0,.1,3.418,31.57,31.57,0,0,0,.4,3.637c.18.779,1.069.749,1.189.05a22.3,22.3,0,0,1,2.518-8.384l.8,2.688a1,1,0,0,0,1,.709H37.568a1,1,0,0,0,1-.709l.8-2.678a22.314,22.314,0,0,1,2.508,8.364c.11.7,1,.729,1.189-.05a30.768,30.768,0,0,0,.34-3.567A11.222,11.222,0,0,0,43.484,22.194Z" transform="translate(-0.009 -0.004)" fill="#ffa517"/>
  </g>
</svg>
